<?xml version="1.0" standalone="no"?>
<!DOCTYPE svg PUBLIC "-//W3C//DTD SVG 20010904//EN"
 "http://www.w3.org/TR/2001/REC-SVG-20010904/DTD/svg10.dtd">
<svg version="1.0" xmlns="http://www.w3.org/2000/svg"
 width="830.000000pt" height="195.000000pt" viewBox="0 0 830.000000 195.000000"
 preserveAspectRatio="xMidYMid meet">

<g transform="translate(0.000000,195.000000) scale(0.100000,-0.100000)"
fill="#000000" stroke="none">
<path d="M860 1597 c0 -9 20 -25 47 -37 69 -30 93 -35 93 -17 0 8 -22 23 -52
35 -29 11 -61 23 -70 27 -13 5 -18 2 -18 -8z"/>
<path d="M1403 1582 c-37 -14 -63 -31 -63 -40 0 -17 24 -12 93 18 26 12 47 27
47 35 0 19 -2 18 -77 -13z"/>
<path d="M1153 1571 c-3 -12 -17 -21 -38 -25 -32 -6 -33 -8 -28 -48 5 -31 2
-43 -11 -50 -20 -11 -21 -48 -1 -48 11 0 14 -7 11 -22 -3 -13 -8 -80 -11 -150
l-6 -128 101 0 101 0 -7 143 c-3 78 -9 145 -11 150 -2 4 3 7 11 7 21 0 21 36
0 48 -13 7 -16 19 -11 50 5 40 4 42 -28 48 -21 4 -35 13 -38 25 -3 10 -10 19
-17 19 -7 0 -14 -9 -17 -19z"/>
<path d="M840 1475 c0 -12 15 -15 75 -15 60 0 75 3 75 15 0 12 -15 15 -75 15
-60 0 -75 -3 -75 -15z"/>
<path d="M1350 1475 c0 -12 15 -15 75 -15 60 0 75 3 75 15 0 12 -15 15 -75 15
-60 0 -75 -3 -75 -15z"/>
<path d="M6285 1436 c-111 -35 -210 -124 -240 -217 -23 -69 -17 -178 13 -241
125 -255 515 -245 634 17 31 68 32 180 1 246 -71 156 -255 243 -408 195z m165
-12 c93 -37 156 -178 148 -334 -4 -77 -9 -98 -39 -157 -113 -222 -371 -152
-408 111 -10 72 -1 167 24 237 20 57 78 127 119 145 42 18 107 17 156 -2z"/>
<path d="M2816 1421 c23 -10 44 -26 47 -36 4 -9 7 -130 7 -269 0 -278 -1 -280
-61 -302 -28 -11 15 -12 246 -11 l280 2 3 88 c3 95 -7 112 -25 44 -24 -89
-102 -135 -212 -124 -96 10 -120 56 -121 226 l0 94 45 -6 c56 -6 81 -27 98
-81 l12 -41 6 53 c4 29 4 85 0 125 -6 65 -7 68 -14 36 -10 -49 -37 -71 -97
-77 l-50 -5 0 147 0 146 80 0 c123 0 186 -35 205 -113 13 -49 20 -28 17 48
l-4 75 -251 0 -252 0 41 -19z"/>
<path d="M3397 1429 c17 -5 41 -21 52 -35 20 -25 21 -39 21 -278 -1 -279 0
-278 -67 -302 -34 -12 -5 -13 247 -11 l285 2 3 95 c3 98 -5 108 -27 33 -24
-85 -103 -131 -210 -120 -43 5 -61 12 -85 37 l-31 30 0 249 c0 231 1 250 19
270 11 12 33 25 50 30 21 6 -19 9 -129 9 -114 0 -151 -2 -128 -9z"/>
<path d="M4217 1429 c17 -5 41 -21 53 -36 20 -26 21 -35 18 -284 -2 -174 -7
-262 -14 -269 -6 -6 -29 -18 -50 -25 -36 -13 -27 -14 121 -14 115 1 151 3 128
10 -63 18 -73 45 -73 195 l0 134 25 0 c13 0 43 -7 65 -16 41 -17 59 -41 76
-99 7 -25 9 -16 14 50 3 44 3 109 0 145 -5 60 -6 62 -13 29 -12 -57 -70 -99
-138 -99 l-29 0 0 140 0 140 68 0 c110 -1 166 -29 204 -103 11 -22 21 -37 24
-34 2 2 1 36 -2 76 l-7 71 -251 -1 c-171 -1 -241 -4 -219 -10z"/>
<path d="M5001 1418 c-102 -264 -193 -492 -209 -523 -23 -46 -47 -70 -82 -84
-19 -7 2 -10 84 -10 l109 -1 -34 23 c-45 30 -48 68 -14 164 l27 73 103 0 103
0 31 -77 c33 -82 39 -134 19 -150 -7 -6 -26 -15 -43 -21 -23 -8 5 -10 130 -10
153 0 158 0 118 14 -23 8 -48 26 -57 39 -8 12 -54 117 -101 231 -48 115 -100
242 -117 282 -31 74 -52 90 -67 50z m12 -178 c14 -36 35 -89 46 -117 l21 -53
-95 0 -94 0 25 68 c14 37 35 91 46 120 11 29 21 52 23 50 1 -2 14 -32 28 -68z"/>
<path d="M5426 1421 c23 -10 44 -26 47 -36 4 -9 7 -130 7 -269 0 -278 -1 -280
-61 -302 -29 -11 -12 -12 121 -12 134 0 150 1 121 12 -63 22 -71 44 -71 177
l0 119 29 0 c51 0 86 -42 154 -181 l62 -129 80 0 80 0 -31 19 c-23 14 -49 53
-98 149 -37 72 -75 133 -84 137 -13 5 -5 13 33 33 115 62 115 214 1 275 -38
20 -57 22 -236 25 l-195 2 41 -19z m293 -13 c39 -23 64 -75 64 -133 0 -96 -58
-155 -153 -155 l-40 0 0 156 0 157 54 -6 c29 -3 63 -11 75 -19z"/>
<path d="M920 1396 c-34 -14 -56 -29 -58 -41 -3 -14 0 -16 14 -10 11 4 43 16
72 27 28 12 52 27 52 34 0 19 -16 17 -80 -10z"/>
<path d="M1340 1407 c0 -8 22 -23 53 -35 28 -11 60 -23 70 -27 12 -5 17 -2 17
8 0 9 -20 25 -47 37 -69 30 -93 35 -93 17z"/>
<path d="M1066 1023 c-3 -21 -6 -68 -6 -104 0 -129 -20 -164 -63 -113 -20 23
-32 28 -62 26 -77 -5 -225 -92 -225 -132 0 -4 17 -10 38 -12 20 -3 58 -11 84
-18 41 -12 54 -12 101 3 68 21 116 21 184 0 47 -15 60 -15 101 -3 78 22 131
24 194 4 53 -16 65 -16 106 -4 26 7 67 16 92 20 l45 6 -75 75 c-41 41 -91 82
-112 92 -40 19 -96 22 -145 8 -31 -9 -33 -8 -38 22 -3 18 -6 61 -8 97 l-2 65
-101 3 -101 3 -7 -38z"/>
<path d="M628 572 l-58 -16 0 -43 c0 -51 10 -53 96 -26 49 15 56 15 111 0 75
-21 122 -21 189 0 50 15 57 15 114 0 75 -21 119 -21 186 0 49 15 56 15 111 0
75 -21 122 -21 190 0 47 15 60 15 101 4 26 -8 59 -16 75 -19 26 -4 27 -3 27
40 l0 45 -75 18 c-73 19 -77 19 -150 0 -73 -18 -77 -18 -150 0 -73 19 -77 19
-150 0 -73 -18 -77 -18 -150 0 -73 19 -77 19 -151 0 -72 -18 -79 -18 -139 -2
-76 20 -102 20 -177 -1z"/>
<path d="M628 392 l-58 -16 0 -43 c0 -51 10 -53 96 -26 49 15 56 15 111 0 75
-21 122 -21 189 0 50 15 57 15 114 0 75 -21 119 -21 186 0 49 15 56 15 111 0
75 -21 122 -21 190 0 47 15 60 15 101 4 26 -8 59 -16 75 -19 26 -4 27 -3 27
40 l0 45 -75 18 c-73 19 -77 19 -150 0 -73 -18 -77 -18 -150 0 -73 19 -77 19
-150 0 -73 -18 -77 -18 -150 0 -73 19 -77 19 -151 0 -72 -18 -79 -18 -139 -2
-76 20 -102 20 -177 -1z"/>
</g>
</svg>
